<svg width="25" height="25" viewBox="0 0 25 25" fill="none" xmlns="http://www.w3.org/2000/svg">
<g clip-path="url(#clip0_496_18148)">
<path d="M24.3917 12.7343C24.3917 11.71 24.3087 10.9626 24.129 10.1875H12.4453V14.8104H19.3034C19.1652 15.9593 18.4185 17.6894 16.7593 18.852L16.736 19.0068L20.4302 21.8716L20.6861 21.8971C23.0367 19.724 24.3917 16.5267 24.3917 12.7343Z" fill="#4285F4"/>
<path d="M12.446 24.9142C15.8058 24.9142 18.6265 23.8069 20.6868 21.8969L16.7599 18.8517C15.7091 19.5853 14.2987 20.0974 12.446 20.0974C9.15518 20.0974 6.36216 17.9244 5.36653 14.9209L5.2206 14.9333L1.37934 17.9092L1.3291 18.049C3.37546 22.1182 7.57885 24.9142 12.446 24.9142Z" fill="#34A853"/>
<path d="M5.36575 14.9209C5.10305 14.1458 4.95101 13.3153 4.95101 12.4572C4.95101 11.599 5.10305 10.7685 5.35193 9.99343L5.34497 9.82835L1.45558 6.80469L1.32833 6.86528C0.484923 8.55392 0.000976562 10.4502 0.000976562 12.4572C0.000976562 14.4641 0.484923 16.3603 1.32833 18.049L5.36575 14.9209Z" fill="#FBBC05"/>
<path d="M12.4459 4.8167C14.7826 4.8167 16.3589 5.8271 17.2577 6.67147L20.7697 3.23884C18.6128 1.23187 15.8058 0 12.4459 0C7.57884 0 3.37546 2.7959 1.3291 6.86517L5.35271 9.99332C6.36216 6.98979 9.15517 4.8167 12.4459 4.8167Z" fill="#EB4335"/>
</g>
<defs>
<clipPath id="clip0_496_18148">
<rect width="24.4048" height="25" fill="white"/>
</clipPath>
</defs>
</svg>
